{"title":"Oblivion 2013 Subbed HDRip X264 AC-3 FooKaS","uid":8718206,"size":1715357726,"categoryP":"video","categoryS":"movies","magnet":"?xt=urn:btih:8e41dc194dfa8a3f366e2ad7229cd7f89dbdb85e&amp;dn=Oblivion+2013+Subbed+HDRip+X264+AC-3+FooKaS&amp;tr=udp%3A%2F%2Ftracker.openbittorrent.com%3A80&amp;tr=udp%3A%2F%2Fopen.demonii.com%3A1337&amp;tr=udp%3A%2F%2Ftracker.coppersurfer.tk%3A6969&amp;tr=udp%3A%2F%2Fexodus.desync.com%3A6969","seeders":2,"leechers":0,"uploader":"IAmsoICan","files":2,"time":1374367507,"description":"Rating \t7.2 / 10\nReleased\t2013\nGenre\tAction, Adventure, Mystery\nActors\tTom Cruise, Morgan Freeman, Olga Kurylenko\nPlot\tA veteran assigned to extract Earth's remaining resources begins to question what he knows about his mission and himself.\n\nSource 720 N.E.T (thx)\n\nKOREAN SUBTITLES\n\nInfo:\n\nFormat                                   : Matroska\nFormat version                           : Version 2\nFile size                                : 1.60 GiB\nDuration                                 : 2h 4mn\nOverall bit rate                         : 1 835 Kbps\nEncoded date                             : UTC 2013-07-20 20:16:06\nWriting application                      : mkvmerge v6.2.0 ('Promised Land') built on Apr 28 2013 12:22:01\nWriting library                          : libebml v1.3.0 + libmatroska v1.4.0\n\nVideo:\n\nID                                       : 1\nFormat                                   : AVC\nFormat/Info                              : Advanced Video Codec\nFormat profile                           : &lt;a class=&quot;__cf_email__&quot; href=&quot;/cdn-cgi/l/email-protection&quot; data-cfemail=&quot;4901202e2109057a6779&quot;&gt;[email&amp;#160;protected]&lt;/a&gt;&lt;script cf-hash='f9e31' type=&quot;text/javascript&quot;&gt;\n/* &lt;![CDATA[ */!function(){try{var t=&quot;currentScript&quot;in document?document.currentScript:function(){for(var t=document.getElementsByTagName(&quot;script&quot;),e=t.length;e--;)if(t[e].getAttribute(&quot;cf-hash&quot;))return t[e]}();if(t&amp;&amp;t.previousSibling){var e,r,n,i,c=t.previousSibling,a=c.getAttribute(&quot;data-cfemail&quot;);if(a){for(e=&quot;&quot;,r=parseInt(a.substr(0,2),16),n=2;a.length-n;n+=2)i=parseInt(a.substr(n,2),16)^r,e+=String.fromCharCode(i);e=document.createTextNode(e),c.parentNode.replaceChild(e,c)}}}catch(u){}}();/* ]]&gt; */&lt;/script&gt;\nFormat settings, CABAC                   : Yes\nFormat settings, ReFrames                : 4 frames\nCodec ID                                 : V_MPEG4/ISO/AVC\nDuration                                 : 2h 4mn\nBit rate                                 : 1 449 Kbps\nWidth                                    : 720 pixels\nHeight                                   : 400 pixels\nDisplay aspect ratio                     : 16:9\nFrame rate mode                          : Constant\nFrame rate                               : 29.557 fps\nOriginal frame rate                      : 29.554 fps\nColor space                              : YUV\nChroma subsampling                       : 4:2:0\nBit depth                                : 8 bits\nScan type                                : Progressive\nBits/(Pixel*Frame)                       : 0.170\nStream size                              : 1.23 GiB (77%)\nWriting library                          : x264 core 133 r2334 a3ac64b\nDefault                                  : Yes\nForced                                   : No\n\nAudio:\n\nID                                       : 2\nFormat                                   : AC-3\nFormat/Info                              : Audio Coding 3\nMode extension                           : CM (complete main)\nFormat settings, Endianness              : Big\nCodec ID                                 : A_AC3\nDuration                                 : 2h 4mn\nBit rate mode                            : Constant\nBit rate                                 : 384 Kbps\nChannel(s)                               : 2 channels\nChannel positions                        : Front: L R\nSampling rate                            : 44.1 KHz\nBit depth                                : 16 bits\nCompression mode                         : Lossy\nStream size                              : 342 MiB (21%)\nLanguage                                 : English\nDefault                                  : Yes\nForced                                   : No","torrent":{"xt":"urn:btih:8e41dc194dfa8a3f366e2ad7229cd7f89dbdb85e","amp;dn":"Oblivion+2013+Subbed+HDRip+X264+AC-3+FooKaS","amp;tr":["udp%3A%2F%2Ftracker.openbittorrent.com%3A80","udp%3A%2F%2Fopen.demonii.com%3A1337","udp%3A%2F%2Ftracker.coppersurfer.tk%3A6969","udp%3A%2F%2Fexodus.desync.com%3A6969"],"infoHash":"8e41dc194dfa8a3f366e2ad7229cd7f89dbdb85e","infoHashBuffer":{"type":"Buffer","data":[142,65,220,25,77,250,138,63,54,110,42,215,34,156,215,248,157,189,184,94]},"announce":[],"urlList":[]}}